<svg id="Layer_1" data-name="Layer 1" xmlns="http://www.w3.org/2000/svg" viewBox="0 0 980.14 980.14"><path d="M685.17,579.69a511.64,511.64,0,0,0-86-20q-6.24-.9-12.58-1.63L498.26,391.17,353.45,664.9l-43.59-82.38L454.68,308.78l43.58-82.37,43.59,82.39Z" transform="translate(-9.93 -9.93)"/><path d="M341.27,687.92l-43.59,82.39L254.1,687.92l-138.61-262a388,388,0,0,1,33.75-101L297.68,605.54Z" transform="translate(-9.93 -9.93)"/><path d="M884.51,425.94,771.81,639l-27,51.08-.61,1.14-43.59,82.39-17.13-37.45a331.18,331.18,0,0,0-38-63.39c-1.69-2.22-3.31-4.28-4.79-6.07-2.9-3.51-5.68-6.51-5.83-6.68a147.64,147.64,0,0,0-14-13.22q-4.7-3.91-9.73-7.4a253.34,253.34,0,0,0-157.54-54.64q-10.66,0-21.13.87l-.61-.11a509.13,509.13,0,0,1,135.57-7.15q16,1.29,31.69,3.54a511.82,511.82,0,0,1,100.3,24.83c.63.21,1.26.43,1.87.67L850.77,325A387.7,387.7,0,0,1,884.51,425.94Z" transform="translate(-9.93 -9.93)"/><path d="M949.17,303.7a491,491,0,0,0-30.44-58.49C832.69,104.13,677.35,9.93,500,9.93S167.31,104.13,81.27,245.21L50.83,303.7A488.23,488.23,0,0,0,9.93,500C9.93,770.66,229.34,990.07,500,990.07S990.07,770.66,990.07,500A488.23,488.23,0,0,0,949.17,303.7ZM500,913C271.92,913,87,728.08,87,500a414,414,0,0,1,13-103.26,409.65,409.65,0,0,1,37.25-94.34C207.34,174.07,343.5,87,500,87s292.67,87.06,362.73,215.38A411.1,411.1,0,0,1,913,500C913,728.08,728.08,913,500,913Z" transform="translate(-9.93 -9.93)"/></svg>